<svg width="69" height="20" viewBox="0 0 69 20" fill="none" xmlns="http://www.w3.org/2000/svg">
<path d="M11.38 1.84C11.3267 2.42667 11.2867 2.99333 11.26 3.54C11.2467 4.08667 11.24 4.50667 11.24 4.8C11.24 5.06667 11.2467 5.32 11.26 5.56C11.2733 5.8 11.2867 6 11.3 6.16H10.84C10.7067 5.18667 10.5 4.42 10.22 3.86C9.94 3.28667 9.57333 2.88667 9.12 2.66C8.68 2.42 8.16 2.3 7.56 2.3H6.74C6.35333 2.3 6.06 2.33333 5.86 2.4C5.66 2.46667 5.52667 2.6 5.46 2.8C5.39333 3 5.36 3.30667 5.36 3.72V14.12C5.36 14.5333 5.39333 14.84 5.46 15.04C5.52667 15.24 5.66 15.3733 5.86 15.44C6.06 15.5067 6.35333 15.54 6.74 15.54H7.72C8.32 15.54 8.84667 15.4133 9.3 15.16C9.76667 14.8933 10.16 14.4467 10.48 13.82C10.8133 13.1933 11.0667 12.3467 11.24 11.28H11.7C11.66 11.7067 11.64 12.2667 11.64 12.96C11.64 13.2667 11.6467 13.7 11.66 14.26C11.6733 14.82 11.7133 15.4 11.78 16C11.1 15.9733 10.3333 15.96 9.48 15.96C8.62667 15.9467 7.86667 15.94 7.2 15.94C6.86667 15.94 6.44 15.94 5.92 15.94C5.4 15.94 4.84 15.9467 4.24 15.96C3.64 15.96 3.03333 15.9667 2.42 15.98C1.80667 15.98 1.22667 15.9867 0.68 16V15.6C1.10667 15.5733 1.42667 15.52 1.64 15.44C1.85333 15.36 1.99333 15.2 2.06 14.96C2.14 14.72 2.18 14.36 2.18 13.88V3.96C2.18 3.46667 2.14 3.10667 2.06 2.88C1.99333 2.64 1.84667 2.48 1.62 2.4C1.40667 2.30667 1.09333 2.25333 0.68 2.24V1.84C1.22667 1.85333 1.80667 1.86667 2.42 1.88C3.03333 1.88 3.64 1.88667 4.24 1.9C4.84 1.9 5.4 1.9 5.92 1.9C6.44 1.9 6.86667 1.9 7.2 1.9C7.81333 1.9 8.50667 1.9 9.28 1.9C10.0667 1.88667 10.7667 1.86667 11.38 1.84ZM8.26 8.68C8.26 8.68 8.26 8.74667 8.26 8.88C8.26 9.01333 8.26 9.08 8.26 9.08H4.76C4.76 9.08 4.76 9.01333 4.76 8.88C4.76 8.74667 4.76 8.68 4.76 8.68H8.26ZM8.84 6.04C8.78667 6.8 8.76 7.38 8.76 7.78C8.77333 8.18 8.78 8.54667 8.78 8.88C8.78 9.21333 8.78667 9.58 8.8 9.98C8.81333 10.38 8.84667 10.96 8.9 11.72H8.44C8.37333 11.2533 8.24667 10.82 8.06 10.42C7.88667 10.02 7.63333 9.7 7.3 9.46C6.96667 9.20667 6.53333 9.08 6 9.08V8.68C6.4 8.68 6.74 8.6 7.02 8.44C7.3 8.26667 7.52667 8.04667 7.7 7.78C7.88667 7.5 8.03333 7.20667 8.14 6.9C8.24667 6.59333 8.32667 6.30667 8.38 6.04H8.84ZM21.0958 9.76V11.42H13.8758V9.76H21.0958ZM27.9847 1.58C28.7714 1.58 29.378 1.66667 29.8047 1.84C30.2314 2 30.598 2.17333 30.9047 2.36C31.0647 2.45333 31.1914 2.52667 31.2847 2.58C31.3914 2.62 31.4914 2.64 31.5847 2.64C31.718 2.64 31.8114 2.56667 31.8647 2.42C31.9314 2.27333 31.9847 2.05333 32.0247 1.76H32.4847C32.4714 2.01333 32.4514 2.32 32.4247 2.68C32.4114 3.02667 32.398 3.48667 32.3847 4.06C32.3847 4.63333 32.3847 5.38667 32.3847 6.32H31.9247C31.8714 5.62667 31.7114 4.95333 31.4447 4.3C31.178 3.64667 30.798 3.11333 30.3047 2.7C29.8247 2.27333 29.2314 2.06 28.5247 2.06C27.8847 2.06 27.358 2.24 26.9447 2.6C26.5314 2.96 26.3247 3.46 26.3247 4.1C26.3247 4.63333 26.458 5.09333 26.7247 5.48C26.9914 5.85333 27.378 6.22 27.8847 6.58C28.4047 6.94 29.0314 7.37333 29.7647 7.88C30.4047 8.29333 30.978 8.70667 31.4847 9.12C31.9914 9.53333 32.398 10 32.7047 10.52C33.0114 11.04 33.1647 11.66 33.1647 12.38C33.1647 13.26 32.9314 13.9867 32.4647 14.56C32.0114 15.1333 31.4114 15.5667 30.6647 15.86C29.918 16.14 29.098 16.28 28.2047 16.28C27.378 16.28 26.718 16.2 26.2247 16.04C25.7314 15.88 25.318 15.7133 24.9847 15.54C24.6914 15.3533 24.4647 15.26 24.3047 15.26C24.1714 15.26 24.0714 15.3333 24.0047 15.48C23.9514 15.6267 23.9047 15.8467 23.8647 16.14H23.4047C23.4314 15.82 23.4447 15.4467 23.4447 15.02C23.458 14.5933 23.4647 14.04 23.4647 13.36C23.478 12.6667 23.4847 11.7933 23.4847 10.74H23.9447C23.998 11.62 24.1447 12.4467 24.3847 13.22C24.638 13.98 25.018 14.5933 25.5247 15.06C26.0447 15.5267 26.7314 15.76 27.5847 15.76C28.0514 15.76 28.4647 15.68 28.8247 15.52C29.198 15.3467 29.498 15.0933 29.7247 14.76C29.9514 14.4267 30.0647 14.0133 30.0647 13.52C30.0647 12.96 29.9314 12.4733 29.6647 12.06C29.4114 11.6467 29.058 11.26 28.6047 10.9C28.1647 10.54 27.6514 10.1733 27.0647 9.8C26.438 9.38667 25.8514 8.97333 25.3047 8.56C24.758 8.14667 24.318 7.67333 23.9847 7.14C23.6647 6.60667 23.5047 5.97333 23.5047 5.24C23.5047 4.4 23.7114 3.71333 24.1247 3.18C24.5514 2.63333 25.1047 2.23333 25.7847 1.98C26.478 1.71333 27.2114 1.58 27.9847 1.58ZM38.4072 0.359999V7.24C38.7405 6.54667 39.1872 6.06667 39.7472 5.8C40.3205 5.52 40.9605 5.38 41.6672 5.38C42.2405 5.38 42.7005 5.45333 43.0472 5.6C43.3939 5.73333 43.6672 5.92 43.8672 6.16C44.0939 6.41333 44.2539 6.74 44.3472 7.14C44.4539 7.54 44.5072 8.08 44.5072 8.76V14.14C44.5072 14.7 44.6005 15.08 44.7872 15.28C44.9872 15.48 45.3205 15.58 45.7872 15.58V16C45.5339 15.9867 45.1472 15.9733 44.6272 15.96C44.1205 15.9333 43.6272 15.92 43.1472 15.92C42.6272 15.92 42.1205 15.9333 41.6272 15.96C41.1472 15.9733 40.7872 15.9867 40.5472 16V15.58C40.9472 15.58 41.2272 15.48 41.3872 15.28C41.5472 15.08 41.6272 14.7 41.6272 14.14V7.92C41.6272 7.58667 41.5939 7.3 41.5272 7.06C41.4605 6.80667 41.3339 6.61333 41.1472 6.48C40.9739 6.33333 40.7205 6.26 40.3872 6.26C40.0272 6.26 39.6939 6.36 39.3872 6.56C39.0939 6.74667 38.8539 7.01333 38.6672 7.36C38.4939 7.70667 38.4072 8.10667 38.4072 8.56V14.14C38.4072 14.7 38.4872 15.08 38.6472 15.28C38.8072 15.48 39.0872 15.58 39.4872 15.58V16C39.2472 15.9867 38.8939 15.9733 38.4272 15.96C37.9605 15.9333 37.4872 15.92 37.0072 15.92C36.4872 15.92 35.9605 15.9333 35.4272 15.96C34.9072 15.9733 34.5139 15.9867 34.2472 16V15.58C34.7139 15.58 35.0405 15.48 35.2272 15.28C35.4272 15.08 35.5272 14.7 35.5272 14.14V2.76C35.5272 2.16 35.4339 1.72 35.2472 1.44C35.0739 1.14667 34.7405 0.999999 34.2472 0.999999V0.579999C34.6739 0.62 35.0872 0.64 35.4872 0.64C36.0339 0.64 36.5539 0.62 37.0472 0.579999C37.5405 0.526666 37.9939 0.453332 38.4072 0.359999ZM51.6752 5.38C52.6485 5.38 53.5018 5.56 54.2352 5.92C54.9685 6.28 55.5418 6.86 55.9552 7.66C56.3685 8.46 56.5752 9.52 56.5752 10.84C56.5752 12.16 56.3685 13.22 55.9552 14.02C55.5418 14.8067 54.9685 15.38 54.2352 15.74C53.5018 16.1 52.6485 16.28 51.6752 16.28C50.7285 16.28 49.8818 16.1 49.1352 15.74C48.4018 15.38 47.8218 14.8067 47.3952 14.02C46.9818 13.22 46.7752 12.16 46.7752 10.84C46.7752 9.52 46.9818 8.46 47.3952 7.66C47.8218 6.86 48.4018 6.28 49.1352 5.92C49.8818 5.56 50.7285 5.38 51.6752 5.38ZM51.6752 5.78C51.1418 5.78 50.6952 6.18 50.3352 6.98C49.9752 7.76667 49.7952 9.05333 49.7952 10.84C49.7952 12.6267 49.9752 13.9133 50.3352 14.7C50.6952 15.4867 51.1418 15.88 51.6752 15.88C52.2218 15.88 52.6685 15.4867 53.0152 14.7C53.3752 13.9133 53.5552 12.6267 53.5552 10.84C53.5552 9.05333 53.3752 7.76667 53.0152 6.98C52.6685 6.18 52.2218 5.78 51.6752 5.78ZM61.9038 5.44V17.64C61.9038 18.2667 62.0638 18.68 62.3838 18.88C62.7038 19.0933 63.1438 19.2 63.7038 19.2V19.62C63.3571 19.6067 62.8771 19.5867 62.2638 19.56C61.6638 19.5467 61.0238 19.54 60.3438 19.54C59.8504 19.54 59.3638 19.5467 58.8838 19.56C58.4171 19.5867 58.0638 19.6067 57.8238 19.62V19.2C58.2638 19.2 58.5704 19.1067 58.7438 18.92C58.9304 18.7333 59.0238 18.3733 59.0238 17.84V7.84C59.0238 7.24 58.9304 6.8 58.7438 6.52C58.5571 6.22667 58.2238 6.08 57.7438 6.08V5.66C58.1704 5.7 58.5838 5.72 58.9838 5.72C59.5304 5.72 60.0504 5.7 60.5438 5.66C61.0371 5.60667 61.4904 5.53333 61.9038 5.44ZM65.0038 5.38C65.6838 5.38 66.2904 5.56667 66.8238 5.94C67.3571 6.3 67.7838 6.85333 68.1038 7.6C68.4238 8.33333 68.5838 9.25333 68.5838 10.36C68.5838 11.3333 68.4704 12.1867 68.2438 12.92C68.0304 13.6533 67.7171 14.2733 67.3038 14.78C66.9038 15.2733 66.4171 15.6467 65.8438 15.9C65.2838 16.1533 64.6504 16.28 63.9438 16.28C63.4238 16.28 62.9504 16.1867 62.5238 16C62.0971 15.8267 61.7704 15.5733 61.5438 15.24L61.7438 14.98C61.8771 15.22 62.0638 15.4067 62.3038 15.54C62.5571 15.6733 62.8438 15.74 63.1638 15.74C63.7638 15.74 64.2371 15.54 64.5838 15.14C64.9304 14.7267 65.1771 14.1533 65.3238 13.42C65.4838 12.6733 65.5638 11.7867 65.5638 10.76C65.5638 9.61333 65.4904 8.71333 65.3438 8.06C65.1971 7.40667 64.9971 6.94 64.7438 6.66C64.4904 6.38 64.1838 6.24 63.8238 6.24C63.3438 6.24 62.9038 6.42667 62.5038 6.8C62.1171 7.17333 61.8971 7.70667 61.8438 8.4L61.7438 7.7C61.9838 6.94 62.3904 6.36667 62.9638 5.98C63.5504 5.58 64.2304 5.38 65.0038 5.38Z" fill="#2C2A2B"/>
</svg>
